<svg width="16" height="16" viewBox="0 0 16 16" fill="none" xmlns="http://www.w3.org/2000/svg">
<path d="M2.11328 4.95996L7.99994 8.36662L13.8466 4.97994" stroke="white" stroke-width="1.5" stroke-linecap="round" stroke-linejoin="round"/>
<path d="M8 14.4065V8.35986" stroke="white" stroke-width="1.5" stroke-linecap="round" stroke-linejoin="round"/>
<path d="M6.6204 1.65325L3.0604 3.63327C2.25374 4.07994 1.59375 5.19993 1.59375 6.11993V9.88661C1.59375 10.8066 2.25374 11.9266 3.0604 12.3733L6.6204 14.3533C7.3804 14.7733 8.62706 14.7733 9.38706 14.3533L12.9471 12.3733C13.7537 11.9266 14.4137 10.8066 14.4137 9.88661V6.11993C14.4137 5.19993 13.7537 4.07994 12.9471 3.63327L9.38706 1.65325C8.6204 1.22659 7.3804 1.22659 6.6204 1.65325Z" stroke="white" stroke-width="1.5" stroke-linecap="round" stroke-linejoin="round"/>
<path d="M11.3335 8.82674V6.38676L5.00684 2.7334" stroke="white" stroke-width="1.5" stroke-linecap="round" stroke-linejoin="round"/>
</svg>
