<svg width="16" height="17" viewBox="0 0 16 17" fill="none" xmlns="http://www.w3.org/2000/svg">
<path d="M5.99967 15.5382H9.99967C13.333 15.5382 14.6663 14.2048 14.6663 10.8715V6.8715C14.6663 3.53817 13.333 2.20483 9.99967 2.20483H5.99967C2.66634 2.20483 1.33301 3.53817 1.33301 6.8715V10.8715C1.33301 14.2048 2.66634 15.5382 5.99967 15.5382Z" stroke="white" stroke-width="1.5" stroke-linecap="round" stroke-linejoin="round"/>
<path d="M6.00033 7.53825C6.73671 7.53825 7.33366 6.94129 7.33366 6.20492C7.33366 5.46854 6.73671 4.87158 6.00033 4.87158C5.26395 4.87158 4.66699 5.46854 4.66699 6.20492C4.66699 6.94129 5.26395 7.53825 6.00033 7.53825Z" stroke="white" stroke-width="1.5" stroke-linecap="round" stroke-linejoin="round"/>
<path d="M1.78027 13.5049L5.06694 11.2982C5.59361 10.9449 6.35361 10.9849 6.82694 11.3915L7.04694 11.5849C7.56694 12.0315 8.40694 12.0315 8.92694 11.5849L11.7003 9.20487C12.2203 8.75821 13.0603 8.75821 13.5803 9.20487L14.6669 10.1382" stroke="white" stroke-width="1.5" stroke-linecap="round" stroke-linejoin="round"/>
</svg>
