<svg width="16" height="17" viewBox="0 0 16 17" fill="none" xmlns="http://www.w3.org/2000/svg">
<path d="M9.99967 1.46167V8.12834C9.99967 8.86167 9.39967 9.46167 8.66634 9.46167H1.33301V4.12834C1.33301 2.655 2.52634 1.46167 3.99967 1.46167H9.99967Z" stroke="white" stroke-width="1.5" stroke-linecap="round" stroke-linejoin="round"/>
<path d="M14.6663 9.46167V11.4617C14.6663 12.5683 13.773 13.4617 12.6663 13.4617H11.9997C11.9997 12.7283 11.3997 12.1283 10.6663 12.1283C9.93301 12.1283 9.33301 12.7283 9.33301 13.4617H6.66634C6.66634 12.7283 6.06634 12.1283 5.33301 12.1283C4.59967 12.1283 3.99967 12.7283 3.99967 13.4617H3.33301C2.22634 13.4617 1.33301 12.5683 1.33301 11.4617V9.46167H8.66634C9.39967 9.46167 9.99967 8.86167 9.99967 8.12834V3.46167H11.2263C11.7063 3.46167 12.1463 3.72168 12.3863 4.13501L13.5263 6.12834H12.6663C12.2997 6.12834 11.9997 6.42834 11.9997 6.795V8.795C11.9997 9.16167 12.2997 9.46167 12.6663 9.46167H14.6663Z" stroke="white" stroke-width="1.5" stroke-linecap="round" stroke-linejoin="round"/>
<path d="M5.33333 14.7951C6.06971 14.7951 6.66667 14.1981 6.66667 13.4618C6.66667 12.7254 6.06971 12.1284 5.33333 12.1284C4.59695 12.1284 4 12.7254 4 13.4618C4 14.1981 4.59695 14.7951 5.33333 14.7951Z" stroke="white" stroke-width="1.5" stroke-linecap="round" stroke-linejoin="round"/>
<path d="M10.6663 14.7951C11.4027 14.7951 11.9997 14.1981 11.9997 13.4618C11.9997 12.7254 11.4027 12.1284 10.6663 12.1284C9.92996 12.1284 9.33301 12.7254 9.33301 13.4618C9.33301 14.1981 9.92996 14.7951 10.6663 14.7951Z" stroke="white" stroke-width="1.5" stroke-linecap="round" stroke-linejoin="round"/>
<path d="M14.6667 8.12842V9.46175H12.6667C12.3 9.46175 12 9.16175 12 8.79508V6.79508C12 6.42842 12.3 6.12842 12.6667 6.12842H13.5267L14.6667 8.12842Z" stroke="white" stroke-width="1.5" stroke-linecap="round" stroke-linejoin="round"/>
</svg>
