<svg width="16" height="17" viewBox="0 0 16 17" fill="none" xmlns="http://www.w3.org/2000/svg">
<path d="M8.67367 2.07505L12.607 3.82172C13.7403 4.32172 13.7403 5.14838 12.607 5.64838L8.67367 7.39505C8.22701 7.59505 7.49367 7.59505 7.04701 7.39505L3.11367 5.64838C1.98034 5.14838 1.98034 4.32172 3.11367 3.82172L7.04701 2.07505C7.49367 1.87505 8.22701 1.87505 8.67367 2.07505Z" stroke="white" stroke-width="1.5" stroke-linecap="round" stroke-linejoin="round"/>
<path d="M2 7.46167C2 8.02167 2.42 8.66834 2.93333 8.895L7.46 10.9083C7.80667 11.0617 8.2 11.0617 8.54 10.9083L13.0667 8.895C13.58 8.66834 14 8.02167 14 7.46167" stroke="white" stroke-width="1.5" stroke-linecap="round" stroke-linejoin="round"/>
<path d="M2 10.7952C2 11.4152 2.36667 11.9752 2.93333 12.2285L7.46 14.2418C7.80667 14.3952 8.2 14.3952 8.54 14.2418L13.0667 12.2285C13.6333 11.9752 14 11.4152 14 10.7952" stroke="white" stroke-width="1.5" stroke-linecap="round" stroke-linejoin="round"/>
</svg>
