<svg width="16" height="17" viewBox="0 0 16 17" fill="none" xmlns="http://www.w3.org/2000/svg">
<path d="M11.9997 4.90167C11.9597 4.89501 11.9131 4.89501 11.8731 4.90167C10.9531 4.86834 10.2197 4.115 10.2197 3.18167C10.2197 2.22834 10.9864 1.46167 11.9397 1.46167C12.8931 1.46167 13.6597 2.235 13.6597 3.18167C13.6531 4.115 12.9197 4.86834 11.9997 4.90167Z" stroke="white" stroke-width="1.5" stroke-linecap="round" stroke-linejoin="round"/>
<path d="M11.313 9.75511C12.2263 9.90844 13.233 9.74844 13.9396 9.27511C14.8796 8.64844 14.8796 7.62178 13.9396 6.99511C13.2263 6.52178 12.2063 6.36177 11.293 6.52177" stroke="white" stroke-width="1.5" stroke-linecap="round" stroke-linejoin="round"/>
<path d="M3.98031 4.90167C4.02031 4.89501 4.06698 4.89501 4.10698 4.90167C5.02698 4.86834 5.76031 4.115 5.76031 3.18167C5.76031 2.22834 4.99365 1.46167 4.04031 1.46167C3.08698 1.46167 2.32031 2.235 2.32031 3.18167C2.32698 4.115 3.06031 4.86834 3.98031 4.90167Z" stroke="white" stroke-width="1.5" stroke-linecap="round" stroke-linejoin="round"/>
<path d="M4.66663 9.75511C3.75329 9.90844 2.74663 9.74844 2.03996 9.27511C1.09996 8.64844 1.09996 7.62178 2.03996 6.99511C2.75329 6.52178 3.77329 6.36177 4.68663 6.52177" stroke="white" stroke-width="1.5" stroke-linecap="round" stroke-linejoin="round"/>
<path d="M8.0007 9.88165C7.9607 9.87499 7.91404 9.87499 7.87404 9.88165C6.95404 9.84832 6.2207 9.09499 6.2207 8.16165C6.2207 7.20832 6.98737 6.44165 7.9407 6.44165C8.89403 6.44165 9.6607 7.21499 9.6607 8.16165C9.65404 9.09499 8.9207 9.85499 8.0007 9.88165Z" stroke="white" stroke-width="1.5" stroke-linecap="round" stroke-linejoin="round"/>
<path d="M6.06047 11.9817C5.12047 12.6083 5.12047 13.635 6.06047 14.2617C7.12714 14.975 8.8738 14.975 9.94047 14.2617C10.8805 13.635 10.8805 12.6083 9.94047 11.9817C8.88047 11.275 7.12714 11.275 6.06047 11.9817Z" stroke="white" stroke-width="1.5" stroke-linecap="round" stroke-linejoin="round"/>
</svg>
