<svg width="16" height="17" viewBox="0 0 16 17" fill="none" xmlns="http://www.w3.org/2000/svg">
<path d="M1.33301 1.46167H2.49301C3.21301 1.46167 3.77968 2.08167 3.71968 2.795L3.16634 9.435C3.07301 10.5217 3.933 11.455 5.02634 11.455H12.1263C13.0863 11.455 13.9263 10.6683 13.9997 9.71501L14.3597 4.71501C14.4397 3.60834 13.5997 2.70833 12.4863 2.70833H3.87968" stroke="white" stroke-width="1.5" stroke-miterlimit="10" stroke-linecap="round" stroke-linejoin="round"/>
<path d="M10.8333 14.7951C11.2936 14.7951 11.6667 14.422 11.6667 13.9618C11.6667 13.5015 11.2936 13.1284 10.8333 13.1284C10.3731 13.1284 10 13.5015 10 13.9618C10 14.422 10.3731 14.7951 10.8333 14.7951Z" stroke="white" stroke-width="1.5" stroke-miterlimit="10" stroke-linecap="round" stroke-linejoin="round"/>
<path d="M5.50033 14.7951C5.96056 14.7951 6.33366 14.422 6.33366 13.9618C6.33366 13.5015 5.96056 13.1284 5.50033 13.1284C5.04009 13.1284 4.66699 13.5015 4.66699 13.9618C4.66699 14.422 5.04009 14.7951 5.50033 14.7951Z" stroke="white" stroke-width="1.5" stroke-miterlimit="10" stroke-linecap="round" stroke-linejoin="round"/>
<path d="M6 5.46167H14" stroke="white" stroke-width="1.5" stroke-miterlimit="10" stroke-linecap="round" stroke-linejoin="round"/>
</svg>
