<svg width="21" height="20" viewBox="0 0 21 20" fill="none" xmlns="http://www.w3.org/2000/svg">
<path d="M2.77344 6.19971L10.4997 10.458L18.1734 6.22468" stroke="#404040" stroke-width="1.5" stroke-linecap="round" stroke-linejoin="round"/>
<path d="M10.5 18.008V10.4497" stroke="#404040" stroke-width="1.5" stroke-linecap="round" stroke-linejoin="round"/>
<path d="M8.6883 2.0665L4.0158 4.54153C2.95705 5.09986 2.09082 6.49985 2.09082 7.64985V12.3582C2.09082 13.5082 2.95705 14.9082 4.0158 15.4665L8.6883 17.9415C9.6858 18.4665 11.322 18.4665 12.3195 17.9415L16.9921 15.4665C18.0508 14.9082 18.9171 13.5082 18.9171 12.3582V7.64985C18.9171 6.49985 18.0508 5.09986 16.9921 4.54153L12.3195 2.0665C11.3133 1.53317 9.6858 1.53317 8.6883 2.0665Z" stroke="#404040" stroke-width="1.5" stroke-linecap="round" stroke-linejoin="round"/>
<path d="M14.875 11.0332V7.98321L6.57129 3.4165" stroke="#404040" stroke-width="1.5" stroke-linecap="round" stroke-linejoin="round"/>
</svg>
