<svg width="16" height="16" viewBox="0 0 16 16" fill="none" xmlns="http://www.w3.org/2000/svg">
<path d="M5.33203 1.33337V3.33337" stroke="#9C9C9C" stroke-miterlimit="10" stroke-linecap="round" stroke-linejoin="round"/>
<path d="M10.668 1.33337V3.33337" stroke="#9C9C9C" stroke-miterlimit="10" stroke-linecap="round" stroke-linejoin="round"/>
<path d="M2.33203 6.06006H13.6654" stroke="#9C9C9C" stroke-miterlimit="10" stroke-linecap="round" stroke-linejoin="round"/>
<path d="M11.9987 15.3333C13.4715 15.3333 14.6654 14.1394 14.6654 12.6667C14.6654 11.1939 13.4715 10 11.9987 10C10.5259 10 9.33203 11.1939 9.33203 12.6667C9.33203 14.1394 10.5259 15.3333 11.9987 15.3333Z" stroke="#9C9C9C" stroke-miterlimit="10" stroke-linecap="round" stroke-linejoin="round"/>
<path d="M12.9945 12.7H11.0078" stroke="#9C9C9C" stroke-miterlimit="10" stroke-linecap="round" stroke-linejoin="round"/>
<path d="M12 11.7267V13.72" stroke="#9C9C9C" stroke-miterlimit="10" stroke-linecap="round" stroke-linejoin="round"/>
<path d="M14 5.66671V10.9067C13.5133 10.3534 12.8 10 12 10C10.5267 10 9.33333 11.1934 9.33333 12.6667C9.33333 13.1667 9.47333 13.64 9.72 14.04C9.86 14.28 10.04 14.4934 10.2467 14.6667H5.33333C3 14.6667 2 13.3334 2 11.3334V5.66671C2 3.66671 3 2.33337 5.33333 2.33337H10.6667C13 2.33337 14 3.66671 14 5.66671Z" stroke="#9C9C9C" stroke-miterlimit="10" stroke-linecap="round" stroke-linejoin="round"/>
<path d="M7.99764 9.13338H8.00363" stroke="#9C9C9C" stroke-linecap="round" stroke-linejoin="round"/>
<path d="M5.52889 9.13338H5.53488" stroke="#9C9C9C" stroke-linecap="round" stroke-linejoin="round"/>
<path d="M5.52889 11.1334H5.53488" stroke="#9C9C9C" stroke-linecap="round" stroke-linejoin="round"/>
</svg>
