<svg width="33" height="32" viewBox="0 0 33 32" fill="none" xmlns="http://www.w3.org/2000/svg">
<circle cx="16.5" cy="16" r="15.5" fill="#F2F2F2" stroke="#E0E0E0"/>
<path fill-rule="evenodd" clip-rule="evenodd" d="M10.6648 10.1648C10.8844 9.94508 11.2406 9.94508 11.4602 10.1648L22.7102 21.4148C22.9299 21.6344 22.9299 21.9906 22.7102 22.2102C22.4906 22.4299 22.1344 22.4299 21.9148 22.2102L10.6648 10.9602C10.4451 10.7406 10.4451 10.3844 10.6648 10.1648Z" fill="#292D32"/>
<path fill-rule="evenodd" clip-rule="evenodd" d="M22.7102 10.1648C22.9299 10.3844 22.9299 10.7406 22.7102 10.9602L11.4602 22.2102C11.2406 22.4299 10.8844 22.4299 10.6648 22.2102C10.4451 21.9906 10.4451 21.6344 10.6648 21.4148L21.9148 10.1648C22.1344 9.94508 22.4906 9.94508 22.7102 10.1648Z" fill="#292D32"/>
</svg>
