<svg width="14" height="15" viewBox="0 0 14 15" fill="none" xmlns="http://www.w3.org/2000/svg">
<g id="edit">
<path id="Vector" d="M6.41675 2.83337H2.33341C2.024 2.83337 1.72725 2.95629 1.50846 3.17508C1.28966 3.39388 1.16675 3.69062 1.16675 4.00004V12.1667C1.16675 12.4761 1.28966 12.7729 1.50846 12.9917C1.72725 13.2105 2.024 13.3334 2.33341 13.3334H10.5001C10.8095 13.3334 11.1062 13.2105 11.325 12.9917C11.5438 12.7729 11.6667 12.4761 11.6667 12.1667V8.08337" stroke="#6B6B6B" stroke-linecap="round" stroke-linejoin="round"/>
<path id="Vector_2" d="M10.7917 1.95826C11.0238 1.7262 11.3386 1.59583 11.6667 1.59583C11.9949 1.59583 12.3097 1.7262 12.5417 1.95826C12.7738 2.19033 12.9042 2.50507 12.9042 2.83326C12.9042 3.16145 12.7738 3.4762 12.5417 3.70826L7.00008 9.24993L4.66675 9.83326L5.25008 7.49993L10.7917 1.95826Z" stroke="#6B6B6B" stroke-linecap="round" stroke-linejoin="round"/>
</g>
</svg>
