<svg width="77" height="65" viewBox="0 0 77 65" fill="none" xmlns="http://www.w3.org/2000/svg">
<rect x="0.333008" y="2.01294" width="56" height="59" rx="4" fill="#E8E8E8"/>
<rect x="21.0288" y="0.0129395" width="56" height="59" rx="4" transform="rotate(6.51643 21.0288 0.0129395)" fill="#F5F5F5"/>
<path d="M44.8715 38.3387L42.7105 38.0917L42.7815 37.4708C43.0228 35.3595 44.5195 34.3731 45.98 33.4832C47.3049 32.6784 48.5277 31.8871 48.715 30.2478C48.9336 28.3352 47.8287 26.7747 45.7919 26.5419C43.8297 26.3176 42.1882 27.6901 41.9555 29.7269L39.5461 29.4515C39.9237 26.148 42.7382 23.9786 46.0914 24.3618C49.6185 24.7649 51.5487 27.2502 51.1882 30.4046C50.8901 33.0127 49.0564 34.0864 47.4965 34.9649C46.0722 35.7583 45.0872 36.451 44.9424 37.7177L44.8715 38.3387ZM43.3662 42.9224C42.3727 42.8089 41.6687 41.9232 41.7794 40.9545C41.8901 39.9858 42.7758 39.2818 43.7693 39.3954C44.7132 39.5032 45.4392 40.4166 45.3313 41.3604C45.2234 42.3043 44.3101 43.0303 43.3662 42.9224Z" fill="#D9D9D9"/>
</svg>
