<svg width="25" height="24" viewBox="0 0 25 24" fill="none" xmlns="http://www.w3.org/2000/svg">
<path d="M5.90039 2.1001H19.1004C20.2004 2.1001 21.1004 3.0001 21.1004 4.1001V6.3001C21.1004 7.1001 20.6004 8.1001 20.1004 8.6001L15.8004 12.4001C15.2004 12.9001 14.8004 13.9001 14.8004 14.7001V19.0001C14.8004 19.6001 14.4004 20.4001 13.9004 20.7001L12.5004 21.6001C11.2004 22.4001 9.40039 21.5001 9.40039 19.9001V14.6001C9.40039 13.9001 9.00039 13.0001 8.60039 12.5001L4.80039 8.5001C4.30039 8.0001 3.90039 7.1001 3.90039 6.5001V4.2001C3.90039 3.0001 4.80039 2.1001 5.90039 2.1001Z" stroke="#292D32" stroke-width="1.5" stroke-miterlimit="10" stroke-linecap="round" stroke-linejoin="round"/>
<path d="M11.43 2.1001L6.5 10.0001" stroke="#292D32" stroke-width="1.5" stroke-miterlimit="10" stroke-linecap="round" stroke-linejoin="round"/>
</svg>
