<svg width="21" height="20" viewBox="0 0 21 20" fill="none" xmlns="http://www.w3.org/2000/svg">
<path d="M7.875 18.3334H13.125C17.5 18.3334 19.25 16.6667 19.25 12.5001V7.50008C19.25 3.33341 17.5 1.66675 13.125 1.66675H7.875C3.5 1.66675 1.75 3.33341 1.75 7.50008V12.5001C1.75 16.6667 3.5 18.3334 7.875 18.3334Z" stroke="#404040" stroke-width="1.5" stroke-linecap="round" stroke-linejoin="round"/>
<path d="M7.875 8.33333C8.8415 8.33333 9.625 7.58714 9.625 6.66667C9.625 5.74619 8.8415 5 7.875 5C6.9085 5 6.125 5.74619 6.125 6.66667C6.125 7.58714 6.9085 8.33333 7.875 8.33333Z" stroke="#404040" stroke-width="1.5" stroke-linecap="round" stroke-linejoin="round"/>
<path d="M2.33594 15.7916L6.64969 13.0332C7.34094 12.5916 8.33844 12.6416 8.95969 13.1499L9.24844 13.3916C9.93094 13.9499 11.0334 13.9499 11.7159 13.3916L15.3559 10.4166C16.0384 9.85822 17.1409 9.85822 17.8234 10.4166L19.2497 11.5832" stroke="#404040" stroke-width="1.5" stroke-linecap="round" stroke-linejoin="round"/>
</svg>
