<svg width="21" height="20" viewBox="0 0 21 20" fill="none" xmlns="http://www.w3.org/2000/svg">
<path d="M10.5 18.3334C15.3325 18.3334 19.25 14.6025 19.25 10.0001C19.25 5.39771 15.3325 1.66675 10.5 1.66675C5.66751 1.66675 1.75 5.39771 1.75 10.0001C1.75 14.6025 5.66751 18.3334 10.5 18.3334Z" stroke="#404040" stroke-width="1.5" stroke-linecap="round" stroke-linejoin="round"/>
<path d="M7.00039 2.5H7.87539C6.16914 7.36667 6.16914 12.6333 7.87539 17.5H7.00039" stroke="#404040" stroke-width="1.5" stroke-linecap="round" stroke-linejoin="round"/>
<path d="M13.125 2.5C14.8313 7.36667 14.8313 12.6333 13.125 17.5" stroke="#404040" stroke-width="1.5" stroke-linecap="round" stroke-linejoin="round"/>
<path d="M2.625 13.3333V12.5C7.735 14.125 13.265 14.125 18.375 12.5V13.3333" stroke="#404040" stroke-width="1.5" stroke-linecap="round" stroke-linejoin="round"/>
<path d="M2.625 7.5C7.735 5.875 13.265 5.875 18.375 7.5" stroke="#404040" stroke-width="1.5" stroke-linecap="round" stroke-linejoin="round"/>
</svg>
