<svg width="16" height="16" viewBox="0 0 16 16" fill="none" xmlns="http://www.w3.org/2000/svg">
<path d="M9.99967 1.3335V8.00016C9.99967 8.7335 9.39967 9.3335 8.66634 9.3335H1.33301V4.00016C1.33301 2.52683 2.52634 1.3335 3.99967 1.3335H9.99967Z" stroke="#404040" stroke-width="1.5" stroke-linecap="round" stroke-linejoin="round"/>
<path d="M14.6663 9.3335V11.3335C14.6663 12.4402 13.773 13.3335 12.6663 13.3335H11.9997C11.9997 12.6002 11.3997 12.0002 10.6663 12.0002C9.93301 12.0002 9.33301 12.6002 9.33301 13.3335H6.66634C6.66634 12.6002 6.06634 12.0002 5.33301 12.0002C4.59967 12.0002 3.99967 12.6002 3.99967 13.3335H3.33301C2.22634 13.3335 1.33301 12.4402 1.33301 11.3335V9.3335H8.66634C9.39967 9.3335 9.99967 8.7335 9.99967 8.00016V3.3335H11.2263C11.7063 3.3335 12.1463 3.5935 12.3863 4.00684L13.5263 6.00016H12.6663C12.2997 6.00016 11.9997 6.30016 11.9997 6.66683V8.66683C11.9997 9.0335 12.2997 9.3335 12.6663 9.3335H14.6663Z" stroke="#404040" stroke-width="1.5" stroke-linecap="round" stroke-linejoin="round"/>
<path d="M5.33333 14.6667C6.06971 14.6667 6.66667 14.0697 6.66667 13.3333C6.66667 12.597 6.06971 12 5.33333 12C4.59695 12 4 12.597 4 13.3333C4 14.0697 4.59695 14.6667 5.33333 14.6667Z" stroke="#404040" stroke-width="1.5" stroke-linecap="round" stroke-linejoin="round"/>
<path d="M10.6663 14.6667C11.4027 14.6667 11.9997 14.0697 11.9997 13.3333C11.9997 12.597 11.4027 12 10.6663 12C9.92996 12 9.33301 12.597 9.33301 13.3333C9.33301 14.0697 9.92996 14.6667 10.6663 14.6667Z" stroke="#404040" stroke-width="1.5" stroke-linecap="round" stroke-linejoin="round"/>
<path d="M14.6667 8V9.33333H12.6667C12.3 9.33333 12 9.03333 12 8.66667V6.66667C12 6.3 12.3 6 12.6667 6H13.5267L14.6667 8Z" stroke="#404040" stroke-width="1.5" stroke-linecap="round" stroke-linejoin="round"/>
</svg>
