<svg width="22" height="21" viewBox="0 0 22 21" fill="none" xmlns="http://www.w3.org/2000/svg">
<path d="M19.25 2.9375C19.6281 2.9375 19.9375 3.24688 19.9375 3.625V17.3664L19.7227 17.0871L13.8789 9.52461C13.6855 9.27109 13.3805 9.125 13.0625 9.125C12.7445 9.125 12.4438 9.27109 12.2461 9.52461L8.67969 14.1395L7.36914 12.3047C7.17578 12.034 6.86641 11.875 6.53125 11.875C6.19609 11.875 5.88672 12.034 5.69336 12.309L2.25586 17.1215L2.0625 17.3879V3.625C2.0625 3.24688 2.37188 2.9375 2.75 2.9375H19.25ZM2.75 0.875C1.2332 0.875 0 2.1082 0 3.625V17.375C0 18.8918 1.2332 20.125 2.75 20.125H19.25C20.7668 20.125 22 18.8918 22 17.375V3.625C22 2.1082 20.7668 0.875 19.25 0.875H2.75ZM6.1875 9.125C6.45835 9.125 6.72655 9.07165 6.97678 8.968C7.22702 8.86435 7.45439 8.71243 7.64591 8.52091C7.83743 8.32939 7.98935 8.10202 8.093 7.85178C8.19665 7.60155 8.25 7.33335 8.25 7.0625C8.25 6.79165 8.19665 6.52345 8.093 6.27322C7.98935 6.02298 7.83743 5.79561 7.64591 5.60409C7.45439 5.41257 7.22702 5.26065 6.97678 5.157C6.72655 5.05335 6.45835 5 6.1875 5C5.91665 5 5.64845 5.05335 5.39822 5.157C5.14798 5.26065 4.92061 5.41257 4.72909 5.60409C4.53757 5.79561 4.38565 6.02298 4.282 6.27322C4.17835 6.52345 4.125 6.79165 4.125 7.0625C4.125 7.33335 4.17835 7.60155 4.282 7.85178C4.38565 8.10202 4.53757 8.32939 4.72909 8.52091C4.92061 8.71243 5.14798 8.86435 5.39822 8.968C5.64845 9.07165 5.91665 9.125 6.1875 9.125Z" fill="#D9D9D9"/>
</svg>
