<svg width="56" height="56" viewBox="0 0 56 56" fill="none" xmlns="http://www.w3.org/2000/svg">
<circle cx="28" cy="28" r="27.5" stroke="#ECA6A2"/>
<path d="M36.25 20.4375C36.6281 20.4375 36.9375 20.7469 36.9375 21.125V34.8664L36.7227 34.5871L30.8789 27.0246C30.6855 26.7711 30.3805 26.625 30.0625 26.625C29.7445 26.625 29.4438 26.7711 29.2461 27.0246L25.6797 31.6395L24.3691 29.8047C24.1758 29.534 23.8664 29.375 23.5312 29.375C23.1961 29.375 22.8867 29.534 22.6934 29.809L19.2559 34.6215L19.0625 34.8879V21.125C19.0625 20.7469 19.3719 20.4375 19.75 20.4375H36.25ZM19.75 18.375C18.2332 18.375 17 19.6082 17 21.125V34.875C17 36.3918 18.2332 37.625 19.75 37.625H36.25C37.7668 37.625 39 36.3918 39 34.875V21.125C39 19.6082 37.7668 18.375 36.25 18.375H19.75ZM23.1875 26.625C23.4584 26.625 23.7266 26.5717 23.9768 26.468C24.227 26.3644 24.4544 26.2124 24.6459 26.0209C24.8374 25.8294 24.9894 25.602 25.093 25.3518C25.1967 25.1016 25.25 24.8334 25.25 24.5625C25.25 24.2916 25.1967 24.0234 25.093 23.7732C24.9894 23.523 24.8374 23.2956 24.6459 23.1041C24.4544 22.9126 24.227 22.7606 23.9768 22.657C23.7266 22.5533 23.4584 22.5 23.1875 22.5C22.9166 22.5 22.6484 22.5533 22.3982 22.657C22.148 22.7606 21.9206 22.9126 21.7291 23.1041C21.5376 23.2956 21.3856 23.523 21.282 23.7732C21.1783 24.0234 21.125 24.2916 21.125 24.5625C21.125 24.8334 21.1783 25.1016 21.282 25.3518C21.3856 25.602 21.5376 25.8294 21.7291 26.0209C21.9206 26.2124 22.148 26.3644 22.3982 26.468C22.6484 26.5717 22.9166 26.625 23.1875 26.625Z" fill="#DA4E45"/>
</svg>
