<svg width="52" height="48" viewBox="0 0 52 48" fill="none" xmlns="http://www.w3.org/2000/svg">
<g filter="url(#filter0_di_421_3912)">
<rect x="2" y="1" width="48" height="45" rx="10" fill="white"/>
<rect x="2.5" y="1.5" width="47" height="44" rx="9.5" stroke="url(#paint0_linear_421_3912)"/>
<path d="M34.7 20.0443L26.5095 16.0018C26.3511 15.9236 26.1767 15.8829 26 15.8829C25.8233 15.8829 25.6489 15.9236 25.4905 16.0018L17.3 20.0443C16.986 20.1981 16.7213 20.4367 16.5357 20.7331C16.3502 21.0295 16.2512 21.3718 16.25 21.7215V30.3751C16.25 31.4105 17.1003 32.2501 18.1494 32.2501H33.8525C34.9016 32.2501 35.7519 31.4105 35.7519 30.3751V21.7215C35.7505 21.3716 35.6512 21.0291 35.4653 20.7327C35.2795 20.4363 35.0143 20.1979 34.7 20.0443Z" stroke="#727272" stroke-width="1.5" stroke-linecap="round" stroke-linejoin="round"/>
<path d="M32.6249 29.25L26.5658 24.5372C26.3683 24.3836 26.1253 24.3002 25.8751 24.3002C25.6249 24.3002 25.3819 24.3836 25.1844 24.5372L19.1249 29.25M28.4999 25.8281L34.8749 21M16.8749 21L23.3905 25.9219" stroke="#727272" stroke-width="1.5" stroke-linecap="round" stroke-linejoin="round"/>
</g>
<defs>
<filter id="filter0_di_421_3912" x="0.5" y="0" width="51" height="48" filterUnits="userSpaceOnUse" color-interpolation-filters="sRGB">
<feFlood flood-opacity="0" result="BackgroundImageFix"/>
<feColorMatrix in="SourceAlpha" type="matrix" values="0 0 0 0 0 0 0 0 0 0 0 0 0 0 0 0 0 0 127 0" result="hardAlpha"/>
<feOffset dy="0.5"/>
<feGaussianBlur stdDeviation="0.75"/>
<feComposite in2="hardAlpha" operator="out"/>
<feColorMatrix type="matrix" values="0 0 0 0 0 0 0 0 0 0 0 0 0 0 0 0 0 0 0.12 0"/>
<feBlend mode="normal" in2="BackgroundImageFix" result="effect1_dropShadow_421_3912"/>
<feBlend mode="normal" in="SourceGraphic" in2="effect1_dropShadow_421_3912" result="shape"/>
<feColorMatrix in="SourceAlpha" type="matrix" values="0 0 0 0 0 0 0 0 0 0 0 0 0 0 0 0 0 0 127 0" result="hardAlpha"/>
<feOffset dy="-20"/>
<feComposite in2="hardAlpha" operator="arithmetic" k2="-1" k3="1"/>
<feColorMatrix type="matrix" values="0 0 0 0 0 0 0 0 0 0 0 0 0 0 0 0 0 0 0.02 0"/>
<feBlend mode="normal" in2="shape" result="effect2_innerShadow_421_3912"/>
</filter>
<linearGradient id="paint0_linear_421_3912" x1="26" y1="1" x2="26.3757" y2="48.2882" gradientUnits="userSpaceOnUse">
<stop stop-color="#E2E2E2"/>
<stop offset="1" stop-color="white"/>
</linearGradient>
</defs>
</svg>
