<svg width="21" height="20" viewBox="0 0 21 20" fill="none" xmlns="http://www.w3.org/2000/svg">
<path d="M11.3838 2.43335L16.5463 4.61668C18.0338 5.24168 18.0338 6.27502 16.5463 6.90002L11.3838 9.08335C10.7976 9.33335 9.83508 9.33335 9.24883 9.08335L4.08633 6.90002C2.59883 6.27502 2.59883 5.24168 4.08633 4.61668L9.24883 2.43335C9.83508 2.18335 10.7976 2.18335 11.3838 2.43335Z" stroke="#404040" stroke-width="1.5" stroke-linecap="round" stroke-linejoin="round"/>
<path d="M2.625 9.16675C2.625 9.86675 3.17625 10.6751 3.85 10.9584L9.79125 13.4751C10.2462 13.6667 10.7625 13.6667 11.2088 13.4751L17.15 10.9584C17.8238 10.6751 18.375 9.86675 18.375 9.16675" stroke="#404040" stroke-width="1.5" stroke-linecap="round" stroke-linejoin="round"/>
<path d="M2.625 13.3333C2.625 14.1083 3.10625 14.8083 3.85 15.1249L9.79125 17.6416C10.2462 17.8333 10.7625 17.8333 11.2088 17.6416L17.15 15.1249C17.8938 14.8083 18.375 14.1083 18.375 13.3333" stroke="#404040" stroke-width="1.5" stroke-linecap="round" stroke-linejoin="round"/>
</svg>
