<svg width="28" height="28" viewBox="0 0 28 28" fill="none" xmlns="http://www.w3.org/2000/svg">
<rect width="28" height="28" rx="14" fill="#FF3124"/>
<g clip-path="url(#clip0_46_527)">
<path d="M13.5809 10.429C13.4234 9.07949 13.2572 7.65458 13.2572 6H14.7428C14.7428 7.63599 14.5774 9.0591 14.4201 10.4102C14.292 11.5112 14.1694 12.5644 14.1466 13.646C14.8926 12.8679 15.5452 12.0428 16.2288 11.1785C17.0716 10.1129 17.9617 8.98778 19.1316 7.81786L20.1822 8.86842C19.0253 10.0252 17.9019 10.9144 16.8354 11.7586L16.8344 11.7594C15.9656 12.4471 15.1346 13.105 14.354 13.8534C15.4316 13.8306 16.4764 13.7087 17.5709 13.581C18.9204 13.4234 20.3454 13.2572 22 13.2572V14.7428C20.3641 14.7428 18.941 14.5773 17.59 14.4201L17.589 14.42C16.4882 14.2919 15.4353 14.1694 14.354 14.1466C15.1316 14.8921 15.9562 15.5444 16.82 16.2275L16.8213 16.2286C17.887 17.0716 19.0122 17.9616 20.1822 19.1316L19.1316 20.1822C17.9748 19.0254 17.0856 17.902 16.2415 16.8356L16.2395 16.8328L16.2378 16.8306C15.551 15.9632 14.894 15.1335 14.1466 14.354C14.1694 15.4356 14.292 16.4888 14.4201 17.5898C14.5774 18.9409 14.7428 20.364 14.7428 22H13.2572C13.2572 20.3454 13.4234 18.9205 13.5809 17.571L13.5812 17.5688C13.7088 16.4751 13.8306 15.4309 13.8534 14.354C13.106 15.1335 12.449 15.9632 11.7622 16.8306L11.7605 16.8328L11.7585 16.8356C10.9144 17.902 10.0252 19.0254 8.86842 20.1822L7.81786 19.1316C8.98784 17.9616 10.113 17.0716 11.1787 16.2286L11.18 16.2275C12.0438 15.5444 12.8684 14.8921 13.646 14.1466C12.5644 14.1695 11.5112 14.292 10.41 14.4201C9.05904 14.5773 7.63594 14.7428 6 14.7428V13.2572C7.65458 13.2572 9.07958 13.4234 10.4291 13.581C11.5236 13.7087 12.5684 13.8306 13.646 13.8534C12.8651 13.1047 12.0337 12.4466 11.1646 11.7586C10.0981 10.9144 8.97466 10.0252 7.81786 8.86842L8.86842 7.81786C10.0383 8.98778 10.9284 10.1129 11.7712 11.1785C12.4548 12.0428 13.1074 12.8678 13.8534 13.6459C13.8306 12.5691 13.7088 11.5249 13.5812 10.4312L13.5809 10.429Z" fill="white"/>
</g>
<defs>
<clipPath id="clip0_46_527">
<rect width="16" height="16" fill="white" transform="translate(6 6)"/>
</clipPath>
</defs>
</svg>
