<svg width="21" height="20" viewBox="0 0 21 20" fill="none" xmlns="http://www.w3.org/2000/svg">
<path d="M10.5165 2.42505C7.75816 2.42505 5.5165 4.66672 5.5165 7.42505V9.83338C5.5165 10.3417 5.29983 11.1167 5.0415 11.55L4.08316 13.1417C3.4915 14.125 3.89983 15.2167 4.98316 15.5834C8.57483 16.7834 12.4498 16.7834 16.0415 15.5834C17.0498 15.2501 17.4915 14.0584 16.9415 13.1417L15.9832 11.55C15.7332 11.1167 15.5165 10.3417 15.5165 9.83338V7.42505C15.5165 4.67505 13.2665 2.42505 10.5165 2.42505Z" stroke="#949494" stroke-width="1.5" stroke-miterlimit="10" stroke-linecap="round"/>
<path d="M12.0579 2.6667C11.7996 2.5917 11.5329 2.53337 11.2579 2.50003C10.4579 2.40003 9.69128 2.45837 8.97461 2.6667C9.21628 2.05003 9.81628 1.6167 10.5163 1.6167C11.2163 1.6167 11.8163 2.05003 12.0579 2.6667Z" stroke="#949494" stroke-width="1.5" stroke-miterlimit="10" stroke-linecap="round" stroke-linejoin="round"/>
<path d="M13.0166 15.8833C13.0166 17.2583 11.8916 18.3833 10.5166 18.3833C9.83327 18.3833 9.19993 18.1 8.74993 17.65C8.29993 17.2 8.0166 16.5666 8.0166 15.8833" stroke="#949494" stroke-width="1.5" stroke-miterlimit="10"/>
</svg>
