<svg width="25" height="24" viewBox="0 0 25 24" fill="none" xmlns="http://www.w3.org/2000/svg">
<path d="M8.24321 15.1131C8.24321 15.5529 7.88671 15.9094 7.44695 15.9094C7.00718 15.9094 6.65068 15.5529 6.65068 15.1131V10.867C6.65068 10.7203 6.53179 10.6014 6.38514 10.6014H6.25036C5.83595 10.6014 5.5 10.2655 5.5 9.85108C5.5 9.43667 5.83595 9.10072 6.25036 9.10072H7.24321C7.7955 9.10072 8.24321 9.54843 8.24321 10.1007V15.1131Z" fill="#9C9C9C"/>
<path d="M13.2007 14.3583C13.629 14.3583 13.9762 14.7055 13.9762 15.1338C13.9762 15.5621 13.629 15.9094 13.2007 15.9094H10.0518C9.66195 15.9094 9.34592 15.5933 9.34592 15.2035C9.34592 15.0229 9.41511 14.8492 9.53926 14.7181L11.1962 12.9683C11.8866 12.2331 12.2088 11.8504 12.2088 11.2863C12.2088 10.823 11.9511 10.5511 11.5 10.5511C11.2592 10.5511 11.0669 10.6211 10.9292 10.7523C10.622 11.0453 10.3366 11.4576 9.91206 11.4576C9.48754 11.4576 9.12981 11.1066 9.24489 10.698C9.5337 9.67245 10.4153 9 11.5828 9C12.89 9 13.8658 9.88633 13.8658 11.0647C13.8658 11.9209 13.5804 12.4345 12.4297 13.6532L11.7986 14.3246C11.7866 14.3373 11.7957 14.3583 11.8132 14.3583H13.2007Z" fill="#9C9C9C"/>
<path d="M16.9869 16C15.9005 16 15.0526 15.4595 14.7279 14.6285C14.5668 14.2162 14.9431 13.8446 15.3858 13.8446C15.8058 13.8446 16.1141 14.2444 16.4573 14.4864C16.5999 14.5869 16.7849 14.6403 17.0053 14.6403C17.5577 14.6403 17.8706 14.3583 17.8706 13.8647C17.8706 13.3813 17.4932 13.1094 16.8212 13.1094H16.8015C16.426 13.1094 16.1216 12.805 16.1216 12.4295V12.3572C16.1216 12.0217 16.3936 11.7496 16.7292 11.7496C17.2907 11.7496 17.5945 11.5079 17.5945 11.0547C17.5945 10.6115 17.3459 10.3597 16.9041 10.3597C16.7498 10.3597 16.6174 10.3998 16.5116 10.4747C16.1651 10.7199 15.8787 11.1554 15.4542 11.1554C15.0297 11.1554 14.6708 10.8 14.8207 10.4029C15.136 9.56735 15.9713 9 16.9869 9C18.3861 9 19.2238 9.79568 19.2238 10.9137C19.2238 11.4863 18.932 11.9428 18.3916 12.3021C18.378 12.3111 18.3802 12.3321 18.3954 12.3382C19.1085 12.6231 19.5 13.1313 19.5 13.8245C19.5 15.1237 18.4874 16 16.9869 16Z" fill="#9C9C9C"/>
<path d="M9.5 22H15.5C20.5 22 22.5 20 22.5 15V9C22.5 4 20.5 2 15.5 2H9.5C4.5 2 2.5 4 2.5 9V15C2.5 20 4.5 22 9.5 22Z" stroke="#9C9C9C" stroke-width="1.5" stroke-linecap="round" stroke-linejoin="round"/>
</svg>
