<svg width="64" height="63" viewBox="0 0 64 63" fill="none" xmlns="http://www.w3.org/2000/svg">
<rect x="1.25" y="0.75" width="61.5" height="60.9107" rx="19.25" stroke="#D9D9D9" stroke-width="1.5"/>
<path d="M15.4312 33.05L13.4212 32.33L14.1112 30.5L16.0612 31.13C17.0812 31.49 17.6512 31.82 18.2812 32.24C18.1012 31.52 18.0112 30.8 18.0112 29.78V27.65H19.9612V29.78C19.9612 30.8 19.8712 31.55 19.7212 32.24C20.2912 31.85 20.8912 31.49 21.9112 31.13L23.8912 30.47L24.5812 32.33L22.5412 33.05C21.5812 33.38 20.8012 33.5 20.1412 33.59C20.7712 34.13 21.2212 34.58 21.7612 35.39L22.9612 37.19L21.3412 38.3L20.1412 36.59C19.5112 35.72 19.2112 35.03 18.9412 34.4C18.7312 35.18 18.3412 35.9 17.8312 36.59L16.5712 38.3L14.9512 37.19L16.1512 35.39C16.7512 34.55 17.2312 34.1 17.8312 33.59C16.9912 33.47 16.3312 33.38 15.4312 33.05Z" fill="black"/>
<path d="M28.4312 33.05L26.4212 32.33L27.1112 30.5L29.0612 31.13C30.0812 31.49 30.6512 31.82 31.2812 32.24C31.1012 31.52 31.0112 30.8 31.0112 29.78V27.65H32.9612V29.78C32.9612 30.8 32.8712 31.55 32.7212 32.24C33.2912 31.85 33.8912 31.49 34.9112 31.13L36.8912 30.47L37.5812 32.33L35.5412 33.05C34.5812 33.38 33.8012 33.5 33.1412 33.59C33.7712 34.13 34.2212 34.58 34.7612 35.39L35.9612 37.19L34.3412 38.3L33.1412 36.59C32.5112 35.72 32.2112 35.03 31.9412 34.4C31.7312 35.18 31.3412 35.9 30.8312 36.59L29.5712 38.3L27.9512 37.19L29.1512 35.39C29.7512 34.55 30.2312 34.1 30.8312 33.59C29.9912 33.47 29.3312 33.38 28.4312 33.05Z" fill="black"/>
<path d="M41.4312 33.05L39.4212 32.33L40.1112 30.5L42.0612 31.13C43.0812 31.49 43.6512 31.82 44.2812 32.24C44.1012 31.52 44.0112 30.8 44.0112 29.78V27.65H45.9612V29.78C45.9612 30.8 45.8712 31.55 45.7212 32.24C46.2912 31.85 46.8912 31.49 47.9112 31.13L49.8912 30.47L50.5812 32.33L48.5412 33.05C47.5812 33.38 46.8012 33.5 46.1412 33.59C46.7712 34.13 47.2212 34.58 47.7612 35.39L48.9612 37.19L47.3412 38.3L46.1412 36.59C45.5112 35.72 45.2112 35.03 44.9412 34.4C44.7312 35.18 44.3412 35.9 43.8312 36.59L42.5712 38.3L40.9512 37.19L42.1512 35.39C42.7512 34.55 43.2312 34.1 43.8312 33.59C42.9912 33.47 42.3312 33.38 41.4312 33.05Z" fill="black"/>
</svg>
