<svg width="21" height="20" viewBox="0 0 21 20" fill="none" xmlns="http://www.w3.org/2000/svg">
<path d="M15.7503 5.96675C15.6978 5.95842 15.6366 5.95842 15.5841 5.96675C14.3766 5.92508 13.4141 4.98342 13.4141 3.81675C13.4141 2.62508 14.4203 1.66675 15.6716 1.66675C16.9228 1.66675 17.9291 2.63342 17.9291 3.81675C17.9203 4.98342 16.9578 5.92508 15.7503 5.96675Z" stroke="#404040" stroke-width="1.5" stroke-linecap="round" stroke-linejoin="round"/>
<path d="M14.8495 12.0333C16.0482 12.225 17.3695 12.025 18.297 11.4333C19.5307 10.65 19.5307 9.36664 18.297 8.58331C17.3607 7.99164 16.022 7.79163 14.8232 7.99163" stroke="#404040" stroke-width="1.5" stroke-linecap="round" stroke-linejoin="round"/>
<path d="M5.22367 5.96675C5.27617 5.95842 5.33742 5.95842 5.38992 5.96675C6.59742 5.92508 7.55992 4.98342 7.55992 3.81675C7.55992 2.62508 6.55367 1.66675 5.30242 1.66675C4.05117 1.66675 3.04492 2.63342 3.04492 3.81675C3.05367 4.98342 4.01617 5.92508 5.22367 5.96675Z" stroke="#404040" stroke-width="1.5" stroke-linecap="round" stroke-linejoin="round"/>
<path d="M6.12476 12.0333C4.92601 12.225 3.60477 12.025 2.67727 11.4333C1.44352 10.65 1.44352 9.36664 2.67727 8.58331C3.61352 7.99164 4.95226 7.79163 6.15101 7.99163" stroke="#404040" stroke-width="1.5" stroke-linecap="round" stroke-linejoin="round"/>
<path d="M10.5003 12.1916C10.4478 12.1833 10.3866 12.1833 10.3341 12.1916C9.12656 12.1499 8.16406 11.2083 8.16406 10.0416C8.16406 8.84994 9.17031 7.8916 10.4216 7.8916C11.6728 7.8916 12.6791 8.85827 12.6791 10.0416C12.6703 11.2083 11.7078 12.1583 10.5003 12.1916Z" stroke="#404040" stroke-width="1.5" stroke-linecap="round" stroke-linejoin="round"/>
<path d="M7.95363 14.8166C6.71988 15.5999 6.71988 16.8832 7.95363 17.6666C9.35363 18.5582 11.6461 18.5582 13.0461 17.6666C14.2799 16.8832 14.2799 15.5999 13.0461 14.8166C11.6549 13.9332 9.35363 13.9332 7.95363 14.8166Z" stroke="#404040" stroke-width="1.5" stroke-linecap="round" stroke-linejoin="round"/>
</svg>
