<svg width="57" height="56" viewBox="0 0 57 56" fill="none" xmlns="http://www.w3.org/2000/svg">
<circle cx="28.5" cy="28" r="27.5" stroke="#ECA6A2"/>
<g clip-path="url(#clip0_800_5017)">
<path d="M36.75 20.4375C37.1281 20.4375 37.4375 20.7469 37.4375 21.125V34.8664L37.2227 34.5871L31.3789 27.0246C31.1855 26.7711 30.8805 26.625 30.5625 26.625C30.2445 26.625 29.9438 26.7711 29.7461 27.0246L26.1797 31.6395L24.8691 29.8047C24.6758 29.534 24.3664 29.375 24.0312 29.375C23.6961 29.375 23.3867 29.534 23.1934 29.809L19.7559 34.6215L19.5625 34.8879V21.125C19.5625 20.7469 19.8719 20.4375 20.25 20.4375H36.75ZM20.25 18.375C18.7332 18.375 17.5 19.6082 17.5 21.125V34.875C17.5 36.3918 18.7332 37.625 20.25 37.625H36.75C38.2668 37.625 39.5 36.3918 39.5 34.875V21.125C39.5 19.6082 38.2668 18.375 36.75 18.375H20.25ZM23.6875 26.625C23.9584 26.625 24.2266 26.5717 24.4768 26.468C24.727 26.3644 24.9544 26.2124 25.1459 26.0209C25.3374 25.8294 25.4894 25.602 25.593 25.3518C25.6967 25.1016 25.75 24.8334 25.75 24.5625C25.75 24.2916 25.6967 24.0234 25.593 23.7732C25.4894 23.523 25.3374 23.2956 25.1459 23.1041C24.9544 22.9126 24.727 22.7606 24.4768 22.657C24.2266 22.5533 23.9584 22.5 23.6875 22.5C23.4166 22.5 23.1484 22.5533 22.8982 22.657C22.648 22.7606 22.4206 22.9126 22.2291 23.1041C22.0376 23.2956 21.8856 23.523 21.782 23.7732C21.6783 24.0234 21.625 24.2916 21.625 24.5625C21.625 24.8334 21.6783 25.1016 21.782 25.3518C21.8856 25.602 22.0376 25.8294 22.2291 26.0209C22.4206 26.2124 22.648 26.3644 22.8982 26.468C23.1484 26.5717 23.4166 26.625 23.6875 26.625Z" fill="#DA4E45"/>
</g>
<defs>
<clipPath id="clip0_800_5017">
<rect width="22" height="22" fill="white" transform="translate(17.5 17)"/>
</clipPath>
</defs>
</svg>
