<svg width="23" height="22" viewBox="0 0 23 22" fill="none" xmlns="http://www.w3.org/2000/svg">
<g id="fa6-regular:image" clip-path="url(#clip0_717_685)">
<path id="Vector" d="M19.75 3.4375C20.1281 3.4375 20.4375 3.74688 20.4375 4.125V17.8664L20.2227 17.5871L14.3789 10.0246C14.1855 9.77109 13.8805 9.625 13.5625 9.625C13.2445 9.625 12.9438 9.77109 12.7461 10.0246L9.17969 14.6395L7.86914 12.8047C7.67578 12.534 7.36641 12.375 7.03125 12.375C6.69609 12.375 6.38672 12.534 6.19336 12.809L2.75586 17.6215L2.5625 17.8879V4.125C2.5625 3.74688 2.87188 3.4375 3.25 3.4375H19.75ZM3.25 1.375C1.7332 1.375 0.5 2.6082 0.5 4.125V17.875C0.5 19.3918 1.7332 20.625 3.25 20.625H19.75C21.2668 20.625 22.5 19.3918 22.5 17.875V4.125C22.5 2.6082 21.2668 1.375 19.75 1.375H3.25ZM6.6875 9.625C6.95835 9.625 7.22655 9.57165 7.47678 9.468C7.72702 9.36435 7.95439 9.21243 8.14591 9.02091C8.33743 8.82939 8.48935 8.60202 8.593 8.35178C8.69665 8.10155 8.75 7.83335 8.75 7.5625C8.75 7.29165 8.69665 7.02345 8.593 6.77322C8.48935 6.52298 8.33743 6.29561 8.14591 6.10409C7.95439 5.91257 7.72702 5.76065 7.47678 5.657C7.22655 5.55335 6.95835 5.5 6.6875 5.5C6.41665 5.5 6.14845 5.55335 5.89822 5.657C5.64798 5.76065 5.42061 5.91257 5.22909 6.10409C5.03757 6.29561 4.88565 6.52298 4.782 6.77322C4.67835 7.02345 4.625 7.29165 4.625 7.5625C4.625 7.83335 4.67835 8.10155 4.782 8.35178C4.88565 8.60202 5.03757 8.82939 5.22909 9.02091C5.42061 9.21243 5.64798 9.36435 5.89822 9.468C6.14845 9.57165 6.41665 9.625 6.6875 9.625Z" fill="#D9D9D9"/>
</g>
<defs>
<clipPath id="clip0_717_685">
<rect width="22" height="22" fill="white" transform="translate(0.5)"/>
</clipPath>
</defs>
</svg>
