<svg width="23" height="23" viewBox="0 0 23 23" fill="none" xmlns="http://www.w3.org/2000/svg">
<g id="fa6-regular:image" clip-path="url(#clip0_800_5036)">
<path id="Vector" d="M19.75 3.9375C20.1281 3.9375 20.4375 4.24688 20.4375 4.625V18.3664L20.2227 18.0871L14.3789 10.5246C14.1855 10.2711 13.8805 10.125 13.5625 10.125C13.2445 10.125 12.9438 10.2711 12.7461 10.5246L9.17969 15.1395L7.86914 13.3047C7.67578 13.034 7.36641 12.875 7.03125 12.875C6.69609 12.875 6.38672 13.034 6.19336 13.309L2.75586 18.1215L2.5625 18.3879V4.625C2.5625 4.24688 2.87188 3.9375 3.25 3.9375H19.75ZM3.25 1.875C1.7332 1.875 0.5 3.1082 0.5 4.625V18.375C0.5 19.8918 1.7332 21.125 3.25 21.125H19.75C21.2668 21.125 22.5 19.8918 22.5 18.375V4.625C22.5 3.1082 21.2668 1.875 19.75 1.875H3.25ZM6.6875 10.125C6.95835 10.125 7.22655 10.0717 7.47678 9.968C7.72702 9.86435 7.95439 9.71243 8.14591 9.52091C8.33743 9.32939 8.48935 9.10202 8.593 8.85178C8.69665 8.60155 8.75 8.33335 8.75 8.0625C8.75 7.79165 8.69665 7.52345 8.593 7.27322C8.48935 7.02298 8.33743 6.79561 8.14591 6.60409C7.95439 6.41257 7.72702 6.26065 7.47678 6.157C7.22655 6.05335 6.95835 6 6.6875 6C6.41665 6 6.14845 6.05335 5.89822 6.157C5.64798 6.26065 5.42061 6.41257 5.22909 6.60409C5.03757 6.79561 4.88565 7.02298 4.782 7.27322C4.67835 7.52345 4.625 7.79165 4.625 8.0625C4.625 8.33335 4.67835 8.60155 4.782 8.85178C4.88565 9.10202 5.03757 9.32939 5.22909 9.52091C5.42061 9.71243 5.64798 9.86435 5.89822 9.968C6.14845 10.0717 6.41665 10.125 6.6875 10.125Z" fill="#DA4E45"/>
</g>
<defs>
<clipPath id="clip0_800_5036">
<rect width="22" height="22" fill="white" transform="translate(0.5 0.5)"/>
</clipPath>
</defs>
</svg>
