<svg width="21" height="20" viewBox="0 0 21 20" fill="none" xmlns="http://www.w3.org/2000/svg">
<path d="M10.5 12.5C11.8807 12.5 13 11.3807 13 10C13 8.61929 11.8807 7.5 10.5 7.5C9.11929 7.5 8 8.61929 8 10C8 11.3807 9.11929 12.5 10.5 12.5Z" stroke="#404040" stroke-width="1.5" stroke-miterlimit="10" stroke-linecap="round" stroke-linejoin="round"/>
<path d="M2.16699 10.7334V9.26669C2.16699 8.40003 2.87533 7.68336 3.75033 7.68336C5.25866 7.68336 5.87533 6.6167 5.11699 5.30836C4.68366 4.55836 4.94199 3.58336 5.70033 3.15003L7.14199 2.32503C7.80033 1.93336 8.65033 2.1667 9.04199 2.82503L9.13366 2.98336C9.88366 4.2917 11.117 4.2917 11.8753 2.98336L11.967 2.82503C12.3587 2.1667 13.2087 1.93336 13.867 2.32503L15.3087 3.15003C16.067 3.58336 16.3253 4.55836 15.892 5.30836C15.1337 6.6167 15.7503 7.68336 17.2587 7.68336C18.1253 7.68336 18.842 8.39169 18.842 9.26669V10.7334C18.842 11.6 18.1337 12.3167 17.2587 12.3167C15.7503 12.3167 15.1337 13.3834 15.892 14.6917C16.3253 15.45 16.067 16.4167 15.3087 16.85L13.867 17.675C13.2087 18.0667 12.3587 17.8334 11.967 17.175L11.8753 17.0167C11.1253 15.7084 9.89199 15.7084 9.13366 17.0167L9.04199 17.175C8.65033 17.8334 7.80033 18.0667 7.14199 17.675L5.70033 16.85C4.94199 16.4167 4.68366 15.4417 5.11699 14.6917C5.87533 13.3834 5.25866 12.3167 3.75033 12.3167C2.87533 12.3167 2.16699 11.6 2.16699 10.7334Z" stroke="#404040" stroke-width="1.5" stroke-miterlimit="10" stroke-linecap="round" stroke-linejoin="round"/>
</svg>
