<svg width="21" height="20" viewBox="0 0 21 20" fill="none" xmlns="http://www.w3.org/2000/svg">
<path d="M1.75 1.66675H3.2725C4.2175 1.66675 4.96125 2.44175 4.8825 3.33341L4.15625 11.6334C4.03375 12.9917 5.16249 14.1584 6.59749 14.1584H15.9163C17.1763 14.1584 18.2787 13.1751 18.375 11.9834L18.8475 5.73342C18.9525 4.35009 17.85 3.22508 16.3887 3.22508H5.09251" stroke="#404040" stroke-width="1.5" stroke-miterlimit="10" stroke-linecap="round" stroke-linejoin="round"/>
<path d="M14.2188 18.3333C14.8228 18.3333 15.3125 17.867 15.3125 17.2917C15.3125 16.7164 14.8228 16.25 14.2188 16.25C13.6147 16.25 13.125 16.7164 13.125 17.2917C13.125 17.867 13.6147 18.3333 14.2188 18.3333Z" stroke="#404040" stroke-width="1.5" stroke-miterlimit="10" stroke-linecap="round" stroke-linejoin="round"/>
<path d="M7.21875 18.3333C7.82281 18.3333 8.3125 17.867 8.3125 17.2917C8.3125 16.7164 7.82281 16.25 7.21875 16.25C6.61469 16.25 6.125 16.7164 6.125 17.2917C6.125 17.867 6.61469 18.3333 7.21875 18.3333Z" stroke="#404040" stroke-width="1.5" stroke-miterlimit="10" stroke-linecap="round" stroke-linejoin="round"/>
<path d="M7.875 6.66675H18.375" stroke="#404040" stroke-width="1.5" stroke-miterlimit="10" stroke-linecap="round" stroke-linejoin="round"/>
</svg>
