<svg width="32" height="32" viewBox="0 0 32 32" fill="none" xmlns="http://www.w3.org/2000/svg">
<path d="M28 16C28 17.5759 27.6896 19.1363 27.0866 20.5922C26.4835 22.0481 25.5996 23.371 24.4853 24.4853C23.371 25.5996 22.0481 26.4835 20.5922 27.0866C19.1363 27.6896 17.5759 28 16 28C14.4241 28 12.8637 27.6896 11.4078 27.0866C9.95189 26.4835 8.62902 25.5996 7.51472 24.4853C6.40042 23.371 5.5165 22.0481 4.91345 20.5922C4.31039 19.1363 4 17.5759 4 16C4 12.8174 5.26428 9.76516 7.51472 7.51472C9.76516 5.26428 12.8174 4 16 4C19.1826 4 22.2348 5.26428 24.4853 7.51472C26.7357 9.76516 28 12.8174 28 16Z" stroke="#D9D9D9" stroke-width="2" stroke-linecap="round" stroke-linejoin="round"/>
<path d="M12 13.3333C12 12.9797 12.1405 12.6406 12.3905 12.3905C12.6406 12.1405 12.9797 12 13.3333 12H18.6667C19.0203 12 19.3594 12.1405 19.6095 12.3905C19.8595 12.6406 20 12.9797 20 13.3333V18.6667C20 19.0203 19.8595 19.3594 19.6095 19.6095C19.3594 19.8595 19.0203 20 18.6667 20H13.3333C12.9797 20 12.6406 19.8595 12.3905 19.6095C12.1405 19.3594 12 19.0203 12 18.6667V13.3333Z" stroke="#D9D9D9" stroke-width="2" stroke-linecap="round" stroke-linejoin="round"/>
</svg>
