<svg width="25" height="24" viewBox="0 0 25 24" fill="none" xmlns="http://www.w3.org/2000/svg">
<path d="M17.4758 15.0001C16.1788 15.0001 15.279 13.8944 15.279 12.3175C15.279 10.779 16.2193 9.63477 17.4758 9.63477C18.4466 9.63477 19.092 10.2805 19.3674 11.2911C19.4784 11.6984 19.1376 12.0633 18.7155 12.0633C18.3292 12.0633 18.069 11.7372 17.9077 11.3863C17.8287 11.2143 17.6987 11.1155 17.4839 11.1155C16.9976 11.1155 16.7138 11.5578 16.7138 12.3175C16.7138 13.0963 16.9895 13.529 17.4839 13.529C17.702 13.529 17.8296 13.443 17.9067 13.2817C18.0728 12.9339 18.3263 12.6086 18.7117 12.6086C19.1362 12.6086 19.48 12.9749 19.3726 13.3856C19.1071 14.4014 18.4815 15.0001 17.4758 15.0001Z" fill="#9C9C9C"/>
<path d="M14.8432 12.3173C14.8432 13.7981 14.0731 15 12.8977 15C12.409 15 11.9945 14.7799 11.6472 14.3734C11.6314 14.3549 11.6007 14.3659 11.6007 14.3901C11.6007 14.6738 11.3706 14.9038 11.0869 14.9038H10.9643C10.6129 14.9038 10.3279 14.6189 10.3279 14.2675V8.6931C10.3279 8.31031 10.6383 8 11.021 8C11.4038 8 11.7141 8.31031 11.7141 8.6931V10.0796C11.7141 10.1256 11.7719 10.1479 11.8044 10.1153C12.123 9.79483 12.4833 9.63462 12.8977 9.63462C14.0731 9.63462 14.8432 10.8173 14.8432 12.3173ZM13.4003 12.3173C13.4003 11.4904 12.9868 11.1154 12.5653 11.1154C12.1438 11.1154 11.7304 11.4808 11.7304 12.3077C11.7304 13.125 12.1357 13.5192 12.5653 13.5192C12.9868 13.5192 13.4003 13.125 13.4003 12.3173Z" fill="#9C9C9C"/>
<path d="M8.76428 14.904C8.48814 14.904 8.26428 14.6801 8.26428 14.404C7.95624 14.8175 7.57524 15.0001 7.0159 15.0001C6.10798 15.0001 5.5 14.3559 5.5 13.3752C5.5 12.3655 6.18904 11.8175 7.43743 11.8175C7.67252 11.8175 7.89139 11.8367 8.07784 11.8751V11.6252C8.07784 11.1732 7.85896 10.9232 7.46986 10.9232C7.27989 10.9232 7.12821 10.9854 7.01784 11.1037C6.79679 11.3407 6.56755 11.6252 6.24346 11.6252C5.8763 11.6252 5.57608 11.3087 5.69039 10.9598C5.95874 10.1407 6.61432 9.63477 7.47796 9.63477C8.67771 9.63477 9.38297 10.404 9.38297 11.7117V14.3447C9.38297 14.6536 9.13254 14.904 8.82362 14.904H8.76428ZM6.80513 13.3271C6.80513 13.6636 6.99968 13.8655 7.34015 13.8655C7.80222 13.8655 8.07784 13.6059 8.07784 13.1828C8.07784 12.9916 7.94607 12.8204 7.75586 12.8004C7.67894 12.7923 7.60431 12.7886 7.5266 12.7886C7.05643 12.7886 6.80513 12.9713 6.80513 13.3271Z" fill="#9C9C9C"/>
<path d="M9.5 22H15.5C20.5 22 22.5 20 22.5 15V9C22.5 4 20.5 2 15.5 2H9.5C4.5 2 2.5 4 2.5 9V15C2.5 20 4.5 22 9.5 22Z" stroke="#9C9C9C" stroke-width="1.5" stroke-linecap="round" stroke-linejoin="round"/>
</svg>
