<svg width="14" height="15" viewBox="0 0 14 15" fill="none" xmlns="http://www.w3.org/2000/svg">
<g id="trash-2">
<path id="Vector" d="M1.75 4H2.91667H12.25" stroke="#DA4E45" stroke-linecap="round" stroke-linejoin="round"/>
<path id="Vector_2" d="M11.0834 3.99996V12.1666C11.0834 12.476 10.9605 12.7728 10.7417 12.9916C10.5229 13.2104 10.2262 13.3333 9.91675 13.3333H4.08341C3.774 13.3333 3.47725 13.2104 3.25846 12.9916C3.03966 12.7728 2.91675 12.476 2.91675 12.1666V3.99996M4.66675 3.99996V2.83329C4.66675 2.52387 4.78966 2.22713 5.00846 2.00833C5.22725 1.78954 5.524 1.66663 5.83341 1.66663H8.16675C8.47617 1.66663 8.77291 1.78954 8.99171 2.00833C9.2105 2.22713 9.33342 2.52387 9.33342 2.83329V3.99996" stroke="#DA4E45" stroke-linecap="round" stroke-linejoin="round"/>
<path id="Vector_3" d="M5.83325 6.91663V10.4166" stroke="#DA4E45" stroke-linecap="round" stroke-linejoin="round"/>
<path id="Vector_4" d="M8.16675 6.91663V10.4166" stroke="#DA4E45" stroke-linecap="round" stroke-linejoin="round"/>
</g>
</svg>
