<svg width="40" height="40" viewBox="0 0 40 40" fill="none" xmlns="http://www.w3.org/2000/svg">
<circle cx="20" cy="20" r="20" fill="#FFF4F3"/>
<path d="M20.8906 13.3926C18.9256 13.3926 17.3281 14.9901 17.3281 16.9551C17.3281 18.8826 18.8356 20.4426 20.8006 20.5101C20.8606 20.5026 20.9206 20.5026 20.9656 20.5101C20.9806 20.5101 20.9881 20.5101 21.0031 20.5101C21.0106 20.5101 21.0106 20.5101 21.0181 20.5101C22.9381 20.4426 24.4456 18.8826 24.4531 16.9551C24.4531 14.9901 22.8556 13.3926 20.8906 13.3926Z" fill="#DA4E45"/>
<path d="M24.6994 22.5052C22.6069 21.1102 19.1944 21.1102 17.0869 22.5052C16.1344 23.1427 15.6094 24.0052 15.6094 24.9277C15.6094 25.8502 16.1344 26.7052 17.0794 27.3352C18.1294 28.0402 19.5094 28.3927 20.8894 28.3927C22.2694 28.3927 23.6494 28.0402 24.6994 27.3352C25.6444 26.6977 26.1694 25.8427 26.1694 24.9127C26.1619 23.9902 25.6444 23.1352 24.6994 22.5052Z" fill="#DA4E45"/>
</svg>
