<svg width="96" height="96" viewBox="0 0 96 96" fill="none" xmlns="http://www.w3.org/2000/svg">
<path opacity="0.4" d="M84.3201 34.3201V61.68C84.3201 66.16 81.92 70.3202 78.04 72.6002L54.28 86.3201C50.4 88.5601 45.5999 88.5601 41.6799 86.3201L17.9199 72.6002C14.0399 70.3602 11.6399 66.2 11.6399 61.68V34.3201C11.6399 29.8401 14.0399 25.68 17.9199 23.4L41.6799 9.68C45.5599 7.44 50.36 7.44 54.28 9.68L78.04 23.4C81.92 25.68 84.3201 29.8001 84.3201 34.3201Z" fill="#EB5757"/>
<path d="M48 55C46.36 55 45 53.64 45 52V31C45 29.36 46.36 28 48 28C49.64 28 51 29.36 51 31V52C51 53.64 49.64 55 48 55Z" fill="#EB5757"/>
<path d="M48 68.9994C47.48 68.9994 46.96 68.8794 46.48 68.6794C45.96 68.4794 45.5599 68.1995 45.1599 67.8395C44.7999 67.4395 44.52 66.9995 44.28 66.5195C44.08 66.0395 44 65.5194 44 64.9994C44 63.9594 44.3999 62.9193 45.1599 62.1593C45.5599 61.7993 45.96 61.5195 46.48 61.3195C47.96 60.6795 49.7201 61.0393 50.8401 62.1593C51.2001 62.5593 51.4799 62.9594 51.6799 63.4794C51.8799 63.9594 52 64.4794 52 64.9994C52 65.5194 51.8799 66.0395 51.6799 66.5195C51.4799 66.9995 51.2001 67.4395 50.8401 67.8395C50.0801 68.5995 49.08 68.9994 48 68.9994Z" fill="#292D32"/>
</svg>
